<svg height="512" viewBox="0 0 60 46" width="512" xmlns="http://www.w3.org/2000/svg"><g id="Page-1" fill="none" fill-rule="evenodd"><g id="036---Cash" fill="rgb(0,0,0)" fill-rule="nonzero"><path id="Shape" d="m28 9.5c0 .5522847.4477153 1 1 1s1-.4477153 1-1c-.0965423-2.24159872-1.7783513-4.09537268-4-4.409v-.091c0-.55228475-.4477153-1-1-1s-1 .44771525-1 1v.091c-2.2216487.31362732-3.9034577 2.16740128-4 4.409.0965423 2.2415987 1.7783513 4.0953727 4 4.409v4.937c-1.1128409-.2524624-1.9267959-1.2072317-2-2.346 0-.5522847-.4477153-1-1-1s-1 .4477153-1 1c.0965423 2.2415987 1.7783513 4.0953727 4 4.409v.091c0 .5522847.4477153 1 1 1s1-.4477153 1-1v-.091c2.2216487-.3136273 3.9034577-2.1674013 4-4.409-.0965423-2.2415987-1.7783513-4.0953727-4-4.409v-4.937c1.1128409.25246244 1.9267959 1.20723172 2 2.346zm-6 0c.0732041-1.13876828.8871591-2.09353756 2-2.346v4.692c-1.1128409-.2524624-1.9267959-1.2072317-2-2.346zm6 7c-.0732041 1.1387683-.8871591 2.0935376-2 2.346v-4.692c1.1128409.2524624 1.9267959 1.2072317 2 2.346z"/><path id="Shape" d="m2 26h2v3c0 1.1045695.8954305 2 2 2h2v3c0 1.1045695.8954305 2 2 2h19c.5522847 0 1-.4477153 1-1s-.4477153-1-1-1h-19v-3h19c.5522847 0 1-.4477153 1-1s-.4477153-1-1-1h-23v-3h19c6.617 0 12-5.832 12-13 .0496733-4.37111431-2.0578731-8.48595462-5.634-11h16.634v13c0 .5522847.4477153 1 1 1s1-.4477153 1-1v-13c0-1.1045695-.8954305-2-2-2h-37c-.5522847 0-1 .44771525-1 1s.4477153 1 1 1h7.634c-3.5761269 2.51404538-5.6836733 6.62888569-5.634 11-.0496733 4.3711143 2.0578731 8.4859546 5.634 11h-16.634v-22h4c.55228475 0 1-.44771525 1-1s-.44771525-1-1-1h-4c-1.1045695 0-2 .8954305-2 2v22c0 1.1045695.8954305 2 2 2zm13-13c0-6.065 4.486-11 10-11s10 4.935 10 11-4.486 11-10 11-10-4.935-10-11z"/><path id="Shape" d="m9 4h-4c-.55228475 0-1 .44771525-1 1v4c0 .55228475.44771525 1 1 1s1-.44771525 1-1v-3h3c.55228475 0 1-.44771525 1-1s-.44771525-1-1-1z"/><path id="Shape" d="m45 10c.5522847 0 1-.44771525 1-1v-4c0-.55228475-.4477153-1-1-1h-4c-.5522847 0-1 .44771525-1 1s.4477153 1 1 1h3v3c0 .55228475.4477153 1 1 1z"/><path id="Shape" d="m5 16c-.55228475 0-1 .4477153-1 1v4c0 .5522847.44771525 1 1 1h4c.55228475 0 1-.4477153 1-1s-.44771525-1-1-1h-3v-3c0-.5522847-.44771525-1-1-1z"/><path id="Shape" d="m46 18c-7.7319865 0-14 6.2680135-14 14s6.2680135 14 14 14 14-6.2680135 14-14c-.0082673-7.7285595-6.2714405-13.9917327-14-14zm0 26c-6.627417 0-12-5.372583-12-12s5.372583-12 12-12 12 5.372583 12 12c-.0071648 6.624447-5.375553 11.9928352-12 12z"/><path id="Shape" d="m47 31.586v-7.586c0-.5522847-.4477153-1-1-1s-1 .4477153-1 1v8c.0000566.2651948.1054506.5195073.293.707l4 4c.3923789.3789722 1.0160848.3735524 1.4018186-.0121814s.3911536-1.0094397.0121814-1.4018186z"/></g></g></svg>